<svg xmlns="http://www.w3.org/2000/svg" xmlns:xlink="http://www.w3.org/1999/xlink" preserveAspectRatio="xMidYMid" width="320" height="320" viewBox="0 0 320 320">
  <defs>
    <style>

      .cls-2 {
        fill: #ffffff;
      }
    </style>
  </defs>
  <path d="M100.000,140.001 C122.091,140.001 140.000,122.093 140.000,100.000 C140.000,77.910 122.091,60.000 100.000,60.000 C77.909,60.000 60.000,77.910 60.000,100.000 C60.000,122.093 77.909,140.001 100.000,140.001 ZM100.000,80.156 C110.960,80.156 119.845,89.040 119.845,100.000 C119.845,110.959 110.960,119.847 100.000,119.847 C89.040,119.847 80.155,110.959 80.155,100.000 C80.155,89.040 89.040,80.156 100.000,80.156 ZM290.000,0.001 C290.000,0.001 30.000,0.001 30.000,0.001 C13.432,0.001 0.000,13.432 0.000,30.001 C0.000,30.001 0.000,290.002 0.000,290.002 C0.000,306.570 13.432,320.001 30.000,320.001 C30.000,320.001 290.000,320.001 290.000,320.001 C306.569,320.001 320.000,306.570 320.000,290.002 C320.000,290.002 320.000,30.001 320.000,30.001 C320.000,13.432 306.569,0.001 290.000,0.001 ZM300.000,280.001 C300.000,291.047 291.046,300.002 280.000,300.002 C280.000,300.002 40.000,300.002 40.000,300.002 C28.955,300.002 20.000,291.047 20.000,280.001 C20.000,280.001 20.000,40.001 20.000,40.001 C20.000,28.954 28.955,20.001 40.000,20.001 C40.000,20.001 280.000,20.001 280.000,20.001 C291.046,20.001 300.000,28.954 300.000,40.001 C300.000,40.001 300.000,280.001 300.000,280.001 ZM137.137,237.151 C140.867,233.421 140.867,227.375 137.137,223.644 C137.137,223.644 109.249,195.757 109.249,195.757 C108.781,194.595 108.080,193.504 107.139,192.563 C104.227,189.651 99.937,189.071 96.399,190.691 C95.108,191.151 93.883,191.830 92.850,192.864 C92.474,193.239 92.305,193.719 92.006,194.136 C92.006,194.136 42.562,243.580 42.562,243.580 C38.818,247.324 38.818,253.395 42.562,257.140 C46.306,260.885 52.377,260.885 56.121,257.140 C56.121,257.140 99.870,213.391 99.870,213.391 C99.870,213.391 123.631,237.151 123.631,237.151 C127.360,240.882 133.408,240.882 137.137,237.151 ZM239.246,175.736 C238.778,174.582 238.076,173.500 237.139,172.562 C234.225,169.649 229.932,169.073 226.393,170.694 C225.106,171.155 223.885,171.837 222.854,172.867 C222.485,173.237 222.321,173.708 222.025,174.116 C222.025,174.116 132.562,263.581 132.562,263.581 C128.817,267.325 128.817,273.396 132.562,277.140 C136.306,280.884 142.377,280.884 146.121,277.140 C146.121,277.140 229.861,193.400 229.861,193.400 C229.861,193.400 263.609,227.146 263.609,227.146 C267.344,230.882 273.399,230.882 277.134,227.146 C280.868,223.413 280.868,217.359 277.134,213.624 C277.134,213.624 239.246,175.736 239.246,175.736 Z" id="path-1" class="cls-2" fill-rule="evenodd"/>
</svg>
