<svg xmlns="http://www.w3.org/2000/svg" xmlns:xlink="http://www.w3.org/1999/xlink" preserveAspectRatio="xMidYMid" width="28" height="20" viewBox="0 0 28 20">
  <defs>
    <style>

      .cls-2 {
        fill: #ffffff;
      }
    </style>
  </defs>
  <path d="M18.503,0.006 C18.631,0.006 18.758,0.006 18.886,0.006 C18.792,0.424 18.672,0.459 18.427,0.695 C18.860,0.567 19.471,0.272 19.957,0.465 C20.033,0.542 20.110,0.618 20.186,0.695 C19.812,1.326 18.871,1.541 18.044,1.689 C18.044,1.715 18.044,1.740 18.044,1.766 C21.331,1.716 23.125,4.110 23.705,6.797 C24.730,7.155 25.947,6.931 26.918,6.720 C26.436,7.680 25.482,8.514 24.164,8.626 C24.164,8.652 24.164,8.772 24.164,8.797 C24.975,8.898 26.071,9.201 26.994,8.950 C26.637,9.679 25.591,10.072 24.699,10.250 C24.393,10.250 24.087,10.250 23.781,10.250 C23.781,10.250 22.155,13.703 21.945,13.981 C19.939,16.645 16.373,18.862 12.690,19.200 C7.802,19.676 4.313,17.743 1.980,15.894 C1.363,15.403 0.034,14.418 -0.008,13.675 C2.431,15.834 7.684,16.175 9.783,13.369 C8.714,13.398 8.414,13.071 7.947,12.528 C7.945,11.592 8.300,11.483 8.788,11.074 C7.293,11.124 5.984,10.488 5.729,9.315 C6.121,9.048 6.786,8.865 7.182,8.550 C5.809,8.330 4.651,7.325 4.505,5.873 C5.015,5.796 5.525,5.720 6.035,5.643 C4.799,5.224 3.649,3.921 3.628,2.277 C3.654,2.277 3.679,2.277 3.705,2.277 C7.103,3.591 10.269,4.986 12.919,6.943 C13.647,4.402 15.147,1.499 17.126,0.159 C17.152,0.159 17.177,0.159 17.203,0.159 C17.152,0.338 17.101,0.516 17.050,0.695 C17.534,0.465 18.019,0.236 18.503,0.006 Z" id="path-1" class="cls-2" fill-rule="evenodd"/>
</svg>
