<svg xmlns="http://www.w3.org/2000/svg" xmlns:xlink="http://www.w3.org/1999/xlink" preserveAspectRatio="xMidYMid" width="24" height="14" viewBox="0 0 24 14"><defs><style> .cls-2 {fill: #ffffff; } </style></defs><path d="M-0.000,14.000 C-0.000,14.000 -0.000,12.000 -0.000,12.000 C-0.000,12.000 24.000,12.000 24.000,12.000 C24.000,12.000 24.000,14.000 24.000,14.000 C24.000,14.000 -0.000,14.000 -0.000,14.000 ZM-0.000,6.000 C-0.000,6.000 24.000,6.000 24.000,6.000 C24.000,6.000 24.000,8.000 24.000,8.000 C24.000,8.000 -0.000,8.000 -0.000,8.000 C-0.000,8.000 -0.000,6.000 -0.000,6.000 ZM-0.000,-0.000 C-0.000,-0.000 24.000,-0.000 24.000,-0.000 C24.000,-0.000 24.000,2.000 24.000,2.000 C24.000,2.000 -0.000,2.000 -0.000,2.000 C-0.000,2.000 -0.000,-0.000 -0.000,-0.000 Z" id="path-1" class="cls-2" fill-rule="evenodd"/></svg>