<?xml version="1.0" encoding="utf-8"?><!DOCTYPE svg PUBLIC "-//W3C//DTD SVG 1.1//EN" "http://www.w3.org/Graphics/SVG/1.1/DTD/svg11.dtd"><svg version="1.1" id="SAGE" xmlns="http://www.w3.org/2000/svg" xmlns:xlink="http://www.w3.org/1999/xlink" x="0px" y="0px"viewBox="0 0 70 70" style="enable-background:new 0 0 70 70;" xml:space="preserve"><style type="text/css"> .st0{fill-rule:evenodd;clip-rule:evenodd;fill:#E83F40;} .st1{fill-rule:evenodd;clip-rule:evenodd;fill:#FFFFFF;} </style><path id="body" class="st0" d="M0,0h70v70H0V0z"/><g id="text"><g><path class="st1" d="M26,22.8h2.2c0.4,0,0.6,0.1,0.7,0.2c0.1,0.1,0.2,0.3,0.2,0.7v4.5c0,0.4-0.1,0.6-0.2,0.7 C28.8,29,28.6,29,28.2,29H27c-0.4,0-0.6-0.1-0.7-0.2c-0.1-0.1-0.2-0.3-0.2-0.7v-2.3h-2.7v2.7c0,1.7,0.9,2.6,2.8,2.6H29 c1.9,0,2.8-0.9,2.8-2.6v-5.3c0-1.7-0.9-2.6-2.7-2.6h-2.2c-0.4,0-0.6-0.1-0.7-0.2c-0.1-0.1-0.2-0.3-0.2-0.7v-4.1 c0-0.4,0.1-0.6,0.2-0.7c0.1-0.1,0.4-0.2,0.7-0.2h1.2c0.4,0,0.6,0.1,0.7,0.2C29,15,29,15.3,29,15.6v2.3h2.7v-2.7 c0-1.7-0.9-2.6-2.8-2.6h-2.9c-1.8,0-2.8,0.9-2.8,2.6v4.9C23.3,21.9,24.2,22.8,26,22.8z M41,26.9H45l0.7,4.3h2.7l-3.5-18.6H41 l-3.3,18.6h2.7L41,26.9z M42.9,14.9l1.7,9.8h-3.2L42.9,14.9z M26,53.5h3.2c1.8,0,2.8-0.9,2.8-2.6v-7h-4.2V46h1.5v4.5 c0,0.4-0.1,0.6-0.2,0.7c-0.1,0.1-0.4,0.2-0.7,0.2h-1.5c-0.4,0-0.6-0.1-0.7-0.2C26,51.1,26,50.9,26,50.5V37.8 c0-0.4,0.1-0.6,0.2-0.7c0.1-0.1,0.4-0.2,0.7-0.2h1.5c0.4,0,0.6,0.1,0.7,0.2c0.1,0.1,0.2,0.3,0.2,0.7v2.5H32v-2.8 c0-1.7-0.9-2.6-2.8-2.6H26c-1.8,0-2.8,0.9-2.8,2.6v13.4C23.3,52.6,24.2,53.5,26,53.5z M41.9,44.9h4.3v-2.2h-4.3V37H47v-2.2h-7.9 v18.6h8.1v-2.2h-5.4V44.9z M23.4,58.8h23.8v-2.4H23.4V58.8z"/></g></g></svg>