<?xml version="1.0" encoding="utf-8"?>
<!-- Generator: Adobe Illustrator 18.1.1, SVG Export Plug-In . SVG Version: 6.00 Build 0)  -->
<!DOCTYPE svg PUBLIC "-//W3C//DTD SVG 1.1//EN" "http://www.w3.org/Graphics/SVG/1.1/DTD/svg11.dtd">
<svg version="1.1" id="Layer_1" xmlns="http://www.w3.org/2000/svg" xmlns:xlink="http://www.w3.org/1999/xlink" x="0px" y="0px"
	 viewBox="0 0 70 70" style="enable-background:new 0 0 70 70;" xml:space="preserve">
<style type="text/css">
	.st0{fill-rule:evenodd;clip-rule:evenodd;fill:#E83F40;}
	.st1{fill-rule:evenodd;clip-rule:evenodd;fill:#FDFDFD;}
</style>
<path class="st0" d="M0,0h70v70H0V0z"/>
<g>
	<g>
		<path class="st1" d="M25,21.8h2.2c0.4,0,0.6,0.1,0.7,0.2c0.1,0.1,0.2,0.3,0.2,0.7v4.5c0,0.4-0.1,0.6-0.2,0.7
			C27.8,28,27.6,28,27.2,28H26c-0.4,0-0.6-0.1-0.7-0.2c-0.1-0.1-0.2-0.3-0.2-0.7v-2.3h-2.7v2.7c0,1.7,0.9,2.6,2.8,2.6H28
			c1.9,0,2.8-0.9,2.8-2.6v-5.3c0-1.7-0.9-2.6-2.7-2.6h-2.2c-0.4,0-0.6-0.1-0.7-0.2c-0.1-0.1-0.2-0.3-0.2-0.7v-4.1
			c0-0.4,0.1-0.6,0.2-0.7c0.1-0.1,0.4-0.2,0.7-0.2h1.2c0.4,0,0.6,0.1,0.7,0.2C28,14,28,14.3,28,14.6v2.3h2.7v-2.7
			c0-1.7-0.9-2.6-2.8-2.6h-2.9c-1.8,0-2.8,0.9-2.8,2.6v4.9C22.3,20.9,23.2,21.8,25,21.8z M40,25.9H44l0.7,4.3h2.7l-3.5-18.6H40
			l-3.3,18.6h2.7L40,25.9z M41.9,13.9l1.7,9.8h-3.2L41.9,13.9z M25,52.5h3.2c1.8,0,2.8-0.9,2.8-2.6v-7h-4.2V45h1.5v4.5
			c0,0.4-0.1,0.6-0.2,0.7c-0.1,0.1-0.4,0.2-0.7,0.2h-1.5c-0.4,0-0.6-0.1-0.7-0.2C25,50.1,25,49.9,25,49.5V36.8
			c0-0.4,0.1-0.6,0.2-0.7c0.1-0.1,0.4-0.2,0.7-0.2h1.5c0.4,0,0.6,0.1,0.7,0.2c0.1,0.1,0.2,0.3,0.2,0.7v2.5H31v-2.8
			c0-1.7-0.9-2.6-2.8-2.6H25c-1.8,0-2.8,0.9-2.8,2.6v13.4C22.3,51.6,23.2,52.5,25,52.5z M40.9,43.9h4.3v-2.2h-4.3V36H46v-2.2h-7.9
			v18.6h8.1v-2.2h-5.4V43.9z M22.4,57.8h23.8v-2.4H22.4V57.8z"/>
	</g>
</g>
</svg>
